<svg xmlns="http://www.w3.org/2000/svg" xmlns:xlink="http://www.w3.org/1999/xlink" width="500" zoomAndPan="magnify" viewBox="0 0 375 374.999991" height="500" preserveAspectRatio="xMidYMid meet" version="1.0"><defs><g/><clipPath id="id1"><path d="M 0 0 L 374.699219 0 L 374.699219 374.699219 L 0 374.699219 Z M 0 0 " clip-rule="nonzero"/></clipPath><clipPath id="id2"><path d="M 32.363281 32.363281 L 342.863281 32.363281 L 342.863281 342.863281 L 32.363281 342.863281 Z M 32.363281 32.363281 " clip-rule="nonzero"/></clipPath></defs><g clip-path="url(#id1)"><path fill="#000000" d="M 187.351562 374.699219 C 137.332031 374.699219 90.230469 355.230469 54.886719 319.8125 C 19.46875 284.46875 0 237.371094 0 187.351562 C 0 137.332031 19.46875 90.230469 54.886719 54.886719 C 90.230469 19.46875 137.332031 0 187.351562 0 C 237.371094 0 284.46875 19.46875 319.8125 54.886719 C 355.230469 90.304688 374.699219 137.332031 374.699219 187.351562 C 374.699219 237.371094 355.230469 284.46875 319.8125 319.8125 C 284.46875 355.230469 237.371094 374.699219 187.351562 374.699219 Z M 187.351562 11.230469 C 140.324219 11.230469 96.070312 29.578125 62.824219 62.824219 C 29.578125 96.070312 11.230469 140.324219 11.230469 187.351562 C 11.230469 234.375 29.578125 278.628906 62.824219 311.875 C 96.070312 345.121094 140.324219 363.46875 187.351562 363.46875 C 234.375 363.46875 278.628906 345.121094 311.875 311.875 C 345.121094 278.628906 363.46875 234.375 363.46875 187.351562 C 363.46875 140.324219 345.121094 96.070312 311.875 62.824219 C 278.628906 29.578125 234.375 11.230469 187.351562 11.230469 Z M 187.351562 11.230469 " fill-opacity="1" fill-rule="nonzero"/></g><g clip-path="url(#id2)"><path fill="#eae0ed" d="M 187.613281 32.363281 C 101.871094 32.363281 32.363281 101.871094 32.363281 187.613281 C 32.363281 273.355469 101.871094 342.863281 187.613281 342.863281 C 273.355469 342.863281 342.863281 273.355469 342.863281 187.613281 C 342.863281 101.871094 273.355469 32.363281 187.613281 32.363281 " fill-opacity="1" fill-rule="nonzero"/></g><g fill="#222222" fill-opacity="1"><g transform="translate(202.148429, 240.000659)"><g><path d="M 5.40625 0 L 5.40625 -13.34375 L 48.59375 -79.203125 L 9.453125 -79.203125 L 9.453125 -97.796875 L 75.75 -97.796875 L 75.75 -84.453125 L 32.546875 -18.59375 L 76.203125 -18.59375 L 76.203125 0 Z M 5.40625 0 "/></g></g></g><g fill="#222222" fill-opacity="1"><g transform="translate(81.715039, 240.000659)"><g><path d="M 11.546875 0 L 11.546875 -97.796875 L 33.59375 -97.796875 L 33.59375 -60.15625 L 67.34375 -60.15625 L 67.34375 -97.796875 L 89.546875 -97.796875 L 89.546875 0 L 67.34375 0 L 67.34375 -40.796875 L 33.59375 -40.796875 L 33.59375 0 Z M 11.546875 0 "/></g></g></g></svg>