<svg xmlns="http://www.w3.org/2000/svg" xmlns:xlink="http://www.w3.org/1999/xlink" width="500" zoomAndPan="magnify" viewBox="0 0 375 374.999991" height="500" preserveAspectRatio="xMidYMid meet" version="1.0"><defs><g/><clipPath id="id1"><path d="M 30.109375 30.109375 L 345.109375 30.109375 L 345.109375 345.109375 L 30.109375 345.109375 Z M 30.109375 30.109375 " clip-rule="nonzero"/></clipPath></defs><path fill="#000000" d="M 187.4375 375 C 84.136719 375 0 290.863281 0 187.4375 C 0 84.011719 84.136719 0 187.4375 0 C 290.734375 0 374.875 84.136719 374.875 187.4375 C 375 290.863281 290.863281 375 187.4375 375 Z M 187.4375 3.171875 C 85.785156 3.171875 3.171875 85.785156 3.171875 187.4375 C 3.171875 289.085938 85.914062 371.828125 187.4375 371.828125 C 288.960938 371.828125 371.828125 289.085938 371.828125 187.4375 C 371.828125 85.785156 289.085938 3.171875 187.4375 3.171875 Z M 187.4375 3.171875 " fill-opacity="1" fill-rule="nonzero"/><g clip-path="url(#id1)"><path fill="#eae0ed" d="M 187.609375 30.109375 C 100.625 30.109375 30.109375 100.625 30.109375 187.609375 C 30.109375 274.59375 100.625 345.109375 187.609375 345.109375 C 274.59375 345.109375 345.109375 274.59375 345.109375 187.609375 C 345.109375 100.625 274.59375 30.109375 187.609375 30.109375 " fill-opacity="1" fill-rule="nonzero"/></g><g fill="#222222" fill-opacity="1"><g transform="translate(202.361351, 240.763782)"><g><path d="M 5.484375 0 L 5.484375 -13.546875 L 49.3125 -80.359375 L 9.59375 -80.359375 L 9.59375 -99.21875 L 76.859375 -99.21875 L 76.859375 -85.6875 L 33.03125 -18.875 L 77.3125 -18.875 L 77.3125 0 Z M 5.484375 0 "/></g></g></g><g fill="#222222" fill-opacity="1"><g transform="translate(80.177415, 240.763782)"><g><path d="M 11.71875 0 L 11.71875 -99.21875 L 34.09375 -99.21875 L 34.09375 -61.03125 L 68.328125 -61.03125 L 68.328125 -99.21875 L 90.859375 -99.21875 L 90.859375 0 L 68.328125 0 L 68.328125 -41.390625 L 34.09375 -41.390625 L 34.09375 0 Z M 11.71875 0 "/></g></g></g></svg>