<svg xmlns="http://www.w3.org/2000/svg" xmlns:xlink="http://www.w3.org/1999/xlink" width="500" zoomAndPan="magnify" viewBox="0 0 375 374.999991" height="500" preserveAspectRatio="xMidYMid meet" version="1.0"><defs><clipPath id="id1"><path d="M 72.683594 38 L 302.183594 38 L 302.183594 337 L 72.683594 337 Z M 72.683594 38 " clip-rule="nonzero"/></clipPath></defs><g clip-path="url(#id1)"><path fill="#585858" d="M 88.773438 38.429688 C 79.777344 38.429688 72.613281 45.683594 72.613281 54.6875 L 72.613281 320.59375 C 72.613281 329.597656 79.777344 336.855469 88.773438 336.855469 L 286.089844 336.855469 C 295.085938 336.855469 302.25 329.597656 302.25 320.59375 L 302.25 120.792969 L 242.8125 120.792969 C 230.640625 120.792969 220.023438 111.910156 220.023438 100.113281 L 220.023438 38.429688 Z M 231.328125 38.429688 L 231.328125 100.109375 C 231.328125 104.957031 235.941406 109.476562 242.808594 109.476562 L 302.25 109.476562 L 231.328125 38.425781 Z M 231.328125 38.429688 " fill-opacity="1" fill-rule="nonzero"/></g><path fill="#ffffff" d="M 108.078125 112.410156 L 205.566406 112.410156 C 205.894531 112.410156 206.21875 112.441406 206.539062 112.503906 C 206.863281 112.570312 207.175781 112.664062 207.476562 112.789062 C 207.78125 112.914062 208.066406 113.070312 208.339844 113.25 C 208.613281 113.433594 208.867188 113.640625 209.097656 113.875 C 209.328125 114.105469 209.535156 114.359375 209.71875 114.628906 C 209.898438 114.902344 210.054688 115.191406 210.179688 115.496094 C 210.304688 115.796875 210.398438 116.109375 210.464844 116.433594 C 210.527344 116.753906 210.558594 117.078125 210.558594 117.40625 L 210.558594 124.902344 C 210.558594 125.230469 210.527344 125.554688 210.464844 125.878906 C 210.398438 126.199219 210.304688 126.511719 210.179688 126.816406 C 210.054688 127.117188 209.898438 127.40625 209.71875 127.679688 C 209.535156 127.953125 209.328125 128.203125 209.097656 128.4375 C 208.867188 128.667969 208.613281 128.875 208.339844 129.058594 C 208.066406 129.242188 207.78125 129.394531 207.476562 129.519531 C 207.175781 129.644531 206.863281 129.742188 206.539062 129.804688 C 206.21875 129.867188 205.894531 129.902344 205.566406 129.902344 L 108.078125 129.902344 C 107.75 129.902344 107.425781 129.867188 107.105469 129.804688 C 106.78125 129.742188 106.472656 129.644531 106.167969 129.519531 C 105.863281 129.394531 105.578125 129.242188 105.304688 129.058594 C 105.03125 128.875 104.78125 128.667969 104.546875 128.4375 C 104.316406 128.203125 104.109375 127.953125 103.925781 127.679688 C 103.746094 127.40625 103.589844 127.117188 103.464844 126.816406 C 103.339844 126.511719 103.246094 126.199219 103.179688 125.878906 C 103.117188 125.554688 103.085938 125.230469 103.085938 124.902344 L 103.085938 117.40625 C 103.085938 117.078125 103.117188 116.753906 103.179688 116.433594 C 103.246094 116.109375 103.339844 115.796875 103.464844 115.496094 C 103.589844 115.191406 103.746094 114.902344 103.925781 114.628906 C 104.109375 114.359375 104.316406 114.105469 104.546875 113.875 C 104.78125 113.640625 105.03125 113.433594 105.304688 113.25 C 105.578125 113.070312 105.863281 112.914062 106.167969 112.789062 C 106.472656 112.664062 106.78125 112.570312 107.105469 112.503906 C 107.425781 112.441406 107.75 112.410156 108.078125 112.410156 Z M 108.078125 112.410156 " fill-opacity="1" fill-rule="nonzero"/><path fill="#ffffff" d="M 108.078125 193.9375 L 266.785156 193.9375 C 267.113281 193.9375 267.4375 193.96875 267.757812 194.03125 C 268.082031 194.097656 268.394531 194.191406 268.695312 194.316406 C 269 194.441406 269.285156 194.597656 269.558594 194.777344 C 269.832031 194.960938 270.085938 195.167969 270.316406 195.398438 C 270.546875 195.632812 270.753906 195.882812 270.9375 196.15625 C 271.121094 196.429688 271.273438 196.71875 271.398438 197.019531 C 271.523438 197.324219 271.617188 197.636719 271.683594 197.957031 C 271.746094 198.28125 271.777344 198.605469 271.777344 198.933594 L 271.777344 206.429688 C 271.777344 206.757812 271.746094 207.082031 271.683594 207.40625 C 271.617188 207.726562 271.523438 208.039062 271.398438 208.34375 C 271.273438 208.644531 271.121094 208.933594 270.9375 209.207031 C 270.753906 209.480469 270.546875 209.730469 270.316406 209.964844 C 270.085938 210.195312 269.832031 210.402344 269.558594 210.585938 C 269.285156 210.765625 269 210.921875 268.695312 211.046875 C 268.394531 211.171875 268.082031 211.265625 267.757812 211.332031 C 267.4375 211.394531 267.113281 211.425781 266.785156 211.425781 L 108.078125 211.425781 C 107.75 211.425781 107.425781 211.394531 107.105469 211.332031 C 106.78125 211.265625 106.472656 211.171875 106.167969 211.046875 C 105.863281 210.921875 105.578125 210.765625 105.304688 210.585938 C 105.03125 210.402344 104.78125 210.195312 104.546875 209.964844 C 104.316406 209.730469 104.109375 209.480469 103.925781 209.207031 C 103.746094 208.933594 103.589844 208.644531 103.464844 208.34375 C 103.339844 208.039062 103.246094 207.726562 103.179688 207.40625 C 103.117188 207.082031 103.085938 206.757812 103.085938 206.429688 L 103.085938 198.933594 C 103.085938 198.605469 103.117188 198.28125 103.179688 197.957031 C 103.246094 197.636719 103.339844 197.324219 103.464844 197.019531 C 103.589844 196.71875 103.746094 196.429688 103.925781 196.15625 C 104.109375 195.882812 104.316406 195.632812 104.546875 195.398438 C 104.78125 195.167969 105.03125 194.960938 105.304688 194.777344 C 105.578125 194.597656 105.863281 194.441406 106.167969 194.316406 C 106.472656 194.191406 106.78125 194.097656 107.105469 194.03125 C 107.425781 193.96875 107.75 193.9375 108.078125 193.9375 Z M 108.078125 193.9375 " fill-opacity="1" fill-rule="nonzero"/><path fill="#ffffff" d="M 108.078125 153.171875 L 205.566406 153.171875 C 205.894531 153.171875 206.21875 153.203125 206.539062 153.269531 C 206.863281 153.332031 207.175781 153.425781 207.476562 153.550781 C 207.78125 153.675781 208.066406 153.832031 208.339844 154.015625 C 208.613281 154.195312 208.867188 154.402344 209.097656 154.636719 C 209.328125 154.867188 209.535156 155.121094 209.71875 155.390625 C 209.898438 155.664062 210.054688 155.953125 210.179688 156.257812 C 210.304688 156.558594 210.398438 156.871094 210.464844 157.195312 C 210.527344 157.515625 210.558594 157.839844 210.558594 158.167969 L 210.558594 165.664062 C 210.558594 165.992188 210.527344 166.320312 210.464844 166.640625 C 210.398438 166.960938 210.304688 167.273438 210.179688 167.578125 C 210.054688 167.878906 209.898438 168.167969 209.71875 168.441406 C 209.535156 168.714844 209.328125 168.96875 209.097656 169.199219 C 208.867188 169.429688 208.613281 169.636719 208.339844 169.820312 C 208.066406 170.003906 207.78125 170.15625 207.476562 170.28125 C 207.175781 170.40625 206.863281 170.503906 206.539062 170.566406 C 206.21875 170.628906 205.894531 170.664062 205.566406 170.664062 L 108.078125 170.664062 C 107.75 170.664062 107.425781 170.628906 107.105469 170.566406 C 106.78125 170.503906 106.472656 170.40625 106.167969 170.28125 C 105.863281 170.15625 105.578125 170.003906 105.304688 169.820312 C 105.03125 169.636719 104.78125 169.429688 104.546875 169.199219 C 104.316406 168.96875 104.109375 168.714844 103.925781 168.441406 C 103.746094 168.167969 103.589844 167.878906 103.464844 167.578125 C 103.339844 167.273438 103.246094 166.960938 103.179688 166.640625 C 103.117188 166.320312 103.085938 165.992188 103.085938 165.664062 L 103.085938 158.167969 C 103.085938 157.839844 103.117188 157.515625 103.179688 157.195312 C 103.246094 156.871094 103.339844 156.558594 103.464844 156.257812 C 103.589844 155.953125 103.746094 155.664062 103.925781 155.390625 C 104.109375 155.121094 104.316406 154.867188 104.546875 154.636719 C 104.78125 154.402344 105.03125 154.195312 105.304688 154.015625 C 105.578125 153.832031 105.863281 153.675781 106.167969 153.550781 C 106.472656 153.425781 106.78125 153.332031 107.105469 153.269531 C 107.425781 153.203125 107.75 153.171875 108.078125 153.171875 Z M 108.078125 153.171875 " fill-opacity="1" fill-rule="nonzero"/><path fill="#ffffff" d="M 108.078125 234.699219 L 266.785156 234.699219 C 267.113281 234.699219 267.4375 234.730469 267.757812 234.792969 C 268.082031 234.859375 268.394531 234.953125 268.695312 235.078125 C 269 235.203125 269.285156 235.359375 269.558594 235.539062 C 269.832031 235.722656 270.085938 235.929688 270.316406 236.160156 C 270.546875 236.394531 270.753906 236.644531 270.9375 236.917969 C 271.121094 237.191406 271.273438 237.480469 271.398438 237.78125 C 271.523438 238.085938 271.617188 238.398438 271.683594 238.71875 C 271.746094 239.042969 271.777344 239.367188 271.777344 239.695312 L 271.777344 247.191406 C 271.777344 247.519531 271.746094 247.84375 271.683594 248.167969 C 271.617188 248.488281 271.523438 248.800781 271.398438 249.105469 C 271.273438 249.40625 271.121094 249.695312 270.9375 249.96875 C 270.753906 250.242188 270.546875 250.492188 270.316406 250.726562 C 270.085938 250.957031 269.832031 251.164062 269.558594 251.347656 C 269.285156 251.527344 269 251.683594 268.695312 251.808594 C 268.394531 251.933594 268.082031 252.027344 267.757812 252.09375 C 267.4375 252.15625 267.113281 252.1875 266.785156 252.1875 L 108.078125 252.1875 C 107.75 252.1875 107.425781 252.15625 107.105469 252.09375 C 106.78125 252.027344 106.472656 251.933594 106.167969 251.808594 C 105.863281 251.683594 105.578125 251.527344 105.304688 251.347656 C 105.03125 251.164062 104.78125 250.957031 104.546875 250.726562 C 104.316406 250.492188 104.109375 250.242188 103.925781 249.96875 C 103.746094 249.695312 103.589844 249.40625 103.464844 249.105469 C 103.339844 248.800781 103.246094 248.488281 103.179688 248.167969 C 103.117188 247.84375 103.085938 247.519531 103.085938 247.191406 L 103.085938 239.695312 C 103.085938 239.367188 103.117188 239.042969 103.179688 238.71875 C 103.246094 238.398438 103.339844 238.085938 103.464844 237.78125 C 103.589844 237.480469 103.746094 237.191406 103.925781 236.917969 C 104.109375 236.644531 104.316406 236.394531 104.546875 236.160156 C 104.78125 235.929688 105.03125 235.722656 105.304688 235.539062 C 105.578125 235.359375 105.863281 235.203125 106.167969 235.078125 C 106.472656 234.953125 106.78125 234.859375 107.105469 234.792969 C 107.425781 234.730469 107.75 234.699219 108.078125 234.699219 Z M 108.078125 234.699219 " fill-opacity="1" fill-rule="nonzero"/><path fill="#ffffff" d="M 108.078125 275.460938 L 266.785156 275.460938 C 267.113281 275.460938 267.4375 275.492188 267.757812 275.554688 C 268.082031 275.621094 268.394531 275.714844 268.695312 275.839844 C 269 275.964844 269.285156 276.121094 269.558594 276.300781 C 269.832031 276.484375 270.085938 276.691406 270.316406 276.925781 C 270.546875 277.15625 270.753906 277.410156 270.9375 277.679688 C 271.121094 277.953125 271.273438 278.242188 271.398438 278.546875 C 271.523438 278.847656 271.617188 279.160156 271.683594 279.480469 C 271.746094 279.804688 271.777344 280.128906 271.777344 280.457031 L 271.777344 287.953125 C 271.777344 288.28125 271.746094 288.605469 271.683594 288.929688 C 271.617188 289.25 271.523438 289.5625 271.398438 289.867188 C 271.273438 290.167969 271.121094 290.457031 270.9375 290.730469 C 270.753906 291.003906 270.546875 291.253906 270.316406 291.488281 C 270.085938 291.71875 269.832031 291.925781 269.558594 292.109375 C 269.285156 292.292969 269 292.445312 268.695312 292.570312 C 268.394531 292.695312 268.082031 292.792969 267.757812 292.855469 C 267.4375 292.917969 267.113281 292.949219 266.785156 292.949219 L 108.078125 292.949219 C 107.75 292.949219 107.425781 292.917969 107.105469 292.855469 C 106.78125 292.792969 106.472656 292.695312 106.167969 292.570312 C 105.863281 292.445312 105.578125 292.292969 105.304688 292.109375 C 105.03125 291.925781 104.78125 291.71875 104.546875 291.488281 C 104.316406 291.253906 104.109375 291.003906 103.925781 290.730469 C 103.746094 290.457031 103.589844 290.167969 103.464844 289.867188 C 103.339844 289.5625 103.246094 289.25 103.179688 288.929688 C 103.117188 288.605469 103.085938 288.28125 103.085938 287.953125 L 103.085938 280.457031 C 103.085938 280.128906 103.117188 279.804688 103.179688 279.480469 C 103.246094 279.160156 103.339844 278.847656 103.464844 278.546875 C 103.589844 278.242188 103.746094 277.953125 103.925781 277.679688 C 104.109375 277.410156 104.316406 277.15625 104.546875 276.925781 C 104.78125 276.691406 105.03125 276.484375 105.304688 276.300781 C 105.578125 276.121094 105.863281 275.964844 106.167969 275.839844 C 106.472656 275.714844 106.78125 275.621094 107.105469 275.554688 C 107.425781 275.492188 107.75 275.460938 108.078125 275.460938 Z M 108.078125 275.460938 " fill-opacity="1" fill-rule="nonzero"/></svg>